<?xml version="1.0" encoding="utf-8"?>
<!-- Generator: Adobe Illustrator 19.1.0, SVG Export Plug-In . SVG Version: 6.00 Build 0)  -->
<svg version="1.1" id="Layer_1" xmlns="http://www.w3.org/2000/svg" xmlns:xlink="http://www.w3.org/1999/xlink" x="0px" y="0px"
	 viewBox="0 0 302.2 89.5" enable-background="new 0 0 302.2 89.5" xml:space="preserve">
<g>
	<g>
		<linearGradient id="SVGID_1_" gradientUnits="userSpaceOnUse" x1="3.207540e-06" y1="44.7267" x2="101.5241" y2="44.7267">
			<stop  offset="0" style="stop-color:#F6A23B"/>
			<stop  offset="1" style="stop-color:#FF821F"/>
		</linearGradient>
		<path fill="url(#SVGID_1_)" d="M88.3,33.9c-1.6,0-3.1,0.3-4.5,0.8c-0.5-2.6-2.8-4.6-5.6-4.6c-3.2,0-5.7,2.6-5.7,5.7
			c0,0.9,0.2,1.8,0.6,2.6c0.4,0.8,1,1.2,1.5,1.9c0.4,0.5,0.7,1.2,0.8,1.9c0.1,0.8,0.2,1.6-0.1,2.3c-0.7,1.7-2.7,2.2-4.3,1.7
			c-1.7-0.5-2.9-2.2-2.2-5.8c0.4-1.9,0.5-3.9,0.5-5.9C69.2,15.5,53.7,0,34.6,0S0,15.5,0,34.6s15.5,34.6,34.6,34.6
			c1.3,0,2.6,0,3.8-0.2c1.8-0.3,4,1.1,4.2,2.6C44,81.9,53.6,89.5,64.3,89.5c12.2,0,22.1-9.9,22.1-22.1c0-1.5-0.1-3-0.4-4.4
			c-0.3-1.2,0.5-2.5,2.3-2.5c7.3,0,13.3-5.9,13.3-13.3C101.5,39.9,95.6,33.9,88.3,33.9z"/>
		<g>
			<linearGradient id="SVGID_2_" gradientUnits="userSpaceOnUse" x1="4.2286" y1="37.5059" x2="53.0695" y2="37.5059">
				<stop  offset="0" style="stop-color:#44270D"/>
				<stop  offset="1" style="stop-color:#1F1002"/>
			</linearGradient>
			<path fill="url(#SVGID_2_)" d="M8.8,24c10.5-3.5,28-4.4,38-2.8c2,0.3,3.4,2,3.4,4c0,10.8-8.6,29.3-24.6,29.3
				c-6.4,0-20.7-4.7-19.6-26.9C6.1,26,7.2,24.6,8.8,24z"/>
			<linearGradient id="SVGID_3_" gradientUnits="userSpaceOnUse" x1="-2.0089" y1="13.1074" x2="55.1492" y2="13.1074">
				<stop  offset="0" style="stop-color:#44270D"/>
				<stop  offset="1" style="stop-color:#1F1002"/>
			</linearGradient>
			<path fill="url(#SVGID_3_)" d="M41.4,11.3c1.1,0.9,2.3,2.7,1.3,4c-0.9,1.2-3.2,0.7-4.9-0.4c-1.2-0.8-2.3-2.8-1.4-4
				C37.3,9.9,39.6,9.9,41.4,11.3z"/>
			<linearGradient id="SVGID_4_" gradientUnits="userSpaceOnUse" x1="4.2286" y1="16.4547" x2="53.0695" y2="16.4547">
				<stop  offset="0" style="stop-color:#44270D"/>
				<stop  offset="1" style="stop-color:#1F1002"/>
			</linearGradient>
			<path fill="url(#SVGID_4_)" d="M13.1,17.7c-0.9,1-2.8,1.9-3.6,1.3c-0.9-0.7-0.3-2.4,0.9-3.8c1.2-1.3,2.9-1.9,3.6-1.1
				C14.6,14.8,14.5,16,13.1,17.7z"/>
		</g>
	</g>
	<g>
		<path fill="#111321" d="M156.6,46.4c-1,4.2-4.8,7.3-9.4,7.3c-1.2,0-2.3-0.2-3.3-0.6c0.2,0.8,0.2,1.6,0.2,2.4
			c0,6.1-4.7,11.1-10.4,11.1c-5.7,0-10.4-5-10.4-11.1c0-6.1,4.7-11.1,10.4-11.1c1.4,0,2.7,0.3,3.9,0.8c0-0.4-0.1-0.8-0.1-1.2
			c0-5.3,4.3-9.6,9.5-9.6c-3.8-2.6-8.4-4.1-13.3-4.1c-13.5,0-24.5,11.3-24.5,25.2c0,13.9,11,25.2,24.5,25.2c4.2,0,8.2-1.1,11.6-3
			c1.3,1.8,3.4,3,5.8,3c3.9,0,7-3.2,7-7V55.5C158.3,52.3,157.7,49.2,156.6,46.4z"/>
		<path fill="#111321" d="M195.6,55.5L207.3,42c2.6-2.9,2.2-7.4-0.7-9.9c-2.9-2.6-7.4-2.2-9.9,0.7l-10.4,12l-10.4-12
			c-2.6-2.9-7-3.2-9.9-0.7c-2.9,2.6-3.2,7-0.7,9.9l11.7,13.5l-7.4,8.5c0.3,0,0.7-0.1,1-0.1c5.2,0,9.4,4.1,9.6,9.3l6.1-7l10.4,12
			c1.4,1.6,3.4,2.4,5.3,2.4c1.6,0,3.3-0.6,4.6-1.7c2.9-2.6,3.2-7,0.7-9.9L195.6,55.5z"/>
		<path fill="#111321" d="M229.4,45.3c0-2.1,1.8-3,3.8-3c0.9,0,1.7,0.1,2.6,0.4c-0.3-1-0.5-2-0.5-3.1c0-4,2.5-7.5,6.1-8.9
			c-2.6-0.7-5.2-1.1-7.2-1.1c-11.5,0-18.5,8.1-18.5,16.3c0,7.7,4,10.5,11.3,13.6c8,3.3,11.2,3.6,11.2,6.6c0,1.5-1.1,2.9-4.1,2.9
			c-6.2,0-9.3-4.2-13.8-4.2c-3.2,0-5.9,2.9-5.9,6.9c0,6.4,10.1,10,19.2,10c9.9,0,18.5-6,18.5-16.1C251.9,49.6,229.4,50.9,229.4,45.3
			z"/>
		<path fill="#111321" d="M288.2,52.8v2.6c0,0,0,0,0,0v11.7c1.8-1.9,4.3-3.1,7-3.1c2.8,0,5.3,1.2,7,3.1V55.4c0-14.7-9.3-25-22.7-25
			c-3.2,0-6,0.6-8.3,1.7V14.9c0-3.9-3.2-7-7-7s-7,3.2-7,7v57.8v0.9v0.9c0,3.9,3.2,7,7,7s7-3.2,7-7v-0.9v-0.9c0,0,0,0,0,0v-20
			c0-4.7,3.8-8.5,8.5-8.5C284.4,44.3,288.2,48.1,288.2,52.8z"/>
		<circle fill="#111321" cx="147.2" cy="44.1" r="7"/>
		<circle fill="#111321" cx="170.5" cy="73.6" r="7"/>
		<circle fill="#111321" cx="244.9" cy="39.6" r="7"/>
		<circle fill="#111321" cx="295.2" cy="73.6" r="7"/>
	</g>
</g>
</svg>
